<?xml version="1.0" standalone="no"?>
<!DOCTYPE svg PUBLIC "-//W3C//DTD SVG 20010904//EN"
 "http://www.w3.org/TR/2001/REC-SVG-20010904/DTD/svg10.dtd">
<svg version="1.0" xmlns="http://www.w3.org/2000/svg"
 width="192.000000pt" height="192.000000pt" viewBox="0 0 192.000000 192.000000"
 preserveAspectRatio="xMidYMid meet">
<metadata>
Created by potrace 1.11, written by Peter Selinger 2001-2013
</metadata>
<g transform="translate(0.000000,192.000000) scale(0.100000,-0.100000)"
fill="#000000" stroke="none">
<path d="M835 1902 c-2 -2 -25 -6 -52 -9 -26 -3 -56 -9 -65 -14 -10 -5 -18 -8
-18 -5 0 7 -93 -26 -155 -54 -88 -40 -187 -110 -260 -184 -83 -85 -90 -93
-137 -171 -155 -257 -175 -582 -51 -854 32 -69 100 -175 140 -218 17 -18 29
-33 27 -33 -3 0 12 -15 33 -32 21 -18 42 -39 46 -45 4 -7 13 -13 19 -13 6 0
21 -11 34 -25 13 -14 25 -25 26 -25 11 4 37 -14 32 -22 -3 -5 0 -8 7 -7 21 5
118 -44 112 -55 -3 -5 -1 -6 5 -2 6 3 23 1 39 -5 31 -13 49 -18 76 -21 9 -1
17 -5 17 -8 0 -3 10 -6 23 -7 51 -3 87 -8 87 -14 0 -3 11 -5 25 -4 14 2 27 -1
31 -6 3 -5 11 -6 17 -2 17 11 40 10 56 -2 11 -7 13 -7 8 1 -5 8 5 11 31 9 20
-1 40 2 43 7 4 6 15 6 29 -2 15 -8 20 -8 16 -1 -10 15 7 14 23 -2 10 -10 12
-9 9 3 -2 9 6 15 22 15 14 1 43 9 64 19 22 9 44 15 50 13 6 -2 16 3 22 11 6 8
25 15 41 16 17 0 29 4 27 8 -6 9 32 29 40 21 3 -3 6 -1 6 5 0 11 38 28 53 24
5 -1 5 2 2 8 -4 7 2 14 14 17 12 3 21 10 21 16 0 6 3 8 6 4 3 -3 16 5 28 19
11 14 30 26 41 28 13 2 19 10 17 21 -2 9 1 14 6 11 5 -3 15 6 22 19 7 13 17
22 22 19 4 -3 8 -1 8 5 0 5 6 16 13 23 6 7 25 32 40 55 20 29 34 40 45 36 15
-4 15 -3 2 7 -11 9 -12 13 -2 17 6 2 10 9 6 14 -3 5 0 9 5 9 6 0 10 3 9 8 -2
11 24 62 31 58 3 -2 7 10 7 27 1 16 8 35 15 41 8 6 15 20 15 31 1 11 4 31 8
45 14 59 23 110 18 110 -2 0 1 6 7 14 9 10 9 16 1 21 -7 4 -7 11 -2 18 8 10 9
171 2 187 -6 14 -4 37 5 49 7 11 7 13 -2 7 -7 -4 -13 -4 -14 1 -1 4 -2 19 -4
33 -3 32 -60 186 -80 216 -8 13 -15 30 -15 39 0 8 -4 15 -10 15 -5 0 -17 14
-26 32 -22 43 -28 50 -114 137 -78 80 -127 117 -220 168 -56 31 -200 87 -200
77 0 -2 -8 -1 -17 5 -32 16 -295 36 -308 23z"/>
<path d="M1356 158 c3 -5 10 -6 15 -3 13 9 11 12 -6 12 -8 0 -12 -4 -9 -9z"/>
<path d="M1210 99 c0 -5 5 -7 10 -4 6 3 10 8 10 11 0 2 -4 4 -10 4 -5 0 -10
-5 -10 -11z"/>
</g>
</svg>
